<mxfile host="65bd71144e">
    <diagram id="TFwpA2LyEqjkVNBBALEd" name="第 1 页">
        <mxGraphModel dx="770" dy="527" grid="1" gridSize="10" guides="1" tooltips="1" connect="1" arrows="1" fold="1" page="1" pageScale="1" pageWidth="827" pageHeight="1169" math="0" shadow="0">
            <root>
                <mxCell id="0"/>
                <mxCell id="1" parent="0"/>
                <mxCell id="2" value="" style="rounded=0;whiteSpace=wrap;html=1;" vertex="1" parent="1">
                    <mxGeometry x="120" y="80" width="160" height="390" as="geometry"/>
                </mxCell>
                <mxCell id="3" value="" style="rounded=0;whiteSpace=wrap;html=1;" vertex="1" parent="1">
                    <mxGeometry x="360" y="80" width="260" height="390" as="geometry"/>
                </mxCell>
                <mxCell id="4" value="Javascript的内存结构" style="text;html=1;strokeColor=none;fillColor=none;align=center;verticalAlign=middle;whiteSpace=wrap;rounded=0;" vertex="1" parent="1">
                    <mxGeometry x="230" y="20" width="130" height="20" as="geometry"/>
                </mxCell>
                <mxCell id="5" value="栈结构" style="text;html=1;strokeColor=none;fillColor=none;align=center;verticalAlign=middle;whiteSpace=wrap;rounded=0;" vertex="1" parent="1">
                    <mxGeometry x="110" y="60" width="130" height="20" as="geometry"/>
                </mxCell>
                <mxCell id="6" value="堆结构" style="text;html=1;strokeColor=none;fillColor=none;align=center;verticalAlign=middle;whiteSpace=wrap;rounded=0;" vertex="1" parent="1">
                    <mxGeometry x="360" y="60" width="130" height="20" as="geometry"/>
                </mxCell>
                <mxCell id="7" value="var name = &quot;why&quot;;&lt;br&gt;var obj = 0x100" style="text;html=1;strokeColor=none;fillColor=none;align=left;verticalAlign=middle;whiteSpace=wrap;rounded=0;" vertex="1" parent="1">
                    <mxGeometry x="140" y="160" width="110" height="60" as="geometry"/>
                </mxCell>
                <mxCell id="9" value="{name:&quot;why&quot;}" style="rounded=0;whiteSpace=wrap;html=1;" vertex="1" parent="1">
                    <mxGeometry x="390" y="130" width="120" height="60" as="geometry"/>
                </mxCell>
                <mxCell id="10" value="0x100" style="text;html=1;strokeColor=none;fillColor=none;align=center;verticalAlign=middle;whiteSpace=wrap;rounded=0;" vertex="1" parent="1">
                    <mxGeometry x="390" y="110" width="40" height="20" as="geometry"/>
                </mxCell>
                <mxCell id="12" value="引用" style="endArrow=classic;html=1;entryX=0;entryY=0.5;entryDx=0;entryDy=0;entryPerimeter=0;" edge="1" parent="1" target="9">
                    <mxGeometry width="50" height="50" relative="1" as="geometry">
                        <mxPoint x="230" y="197" as="sourcePoint"/>
                        <mxPoint x="359.99999999999994" y="169.99999999999997" as="targetPoint"/>
                    </mxGeometry>
                </mxCell>
            </root>
        </mxGraphModel>
    </diagram>
</mxfile>